<svg width="104" height="363" viewBox="0 0 104 363" fill="none" xmlns="http://www.w3.org/2000/svg">
<path d="M39.418 358.372C41.866 363.268 49.822 363.268 52.27 358.372C73.078 320.428 92.05 281.872 103.066 240.256C104.29 234.136 97.558 228.016 92.05 231.688C79.81 240.256 69.406 250.66 60.226 262.9C62.674 177.22 74.302 88.48 54.106 4.02402C52.882 -2.09598 42.479 -0.872005 43.091 5.249C54.106 92.765 45.538 179.669 44.315 267.185C33.911 258.005 23.507 248.825 13.715 239.645C9.43102 235.361 0.250003 237.809 0.862002 245.153C5.759 285.544 19.223 323.488 39.418 358.372ZM46.15 285.544C49.822 291.052 60.226 289.828 60.226 281.26C60.226 280.648 60.226 280.036 60.226 280.036C67.57 272.692 74.302 265.348 82.258 258.004C72.466 286.156 60.226 312.472 46.151 338.788C33.911 314.92 24.731 290.44 19.835 264.124C26.567 270.244 33.911 276.364 40.644 283.096C41.866 285.544 44.315 286.156 46.15 285.544Z" fill="black"/>
</svg>
